<?xml version="1.0" encoding="utf-8"?>
<!-- Generator: Adobe Illustrator 21.1.0, SVG Export Plug-In . SVG Version: 6.00 Build 0)  -->
<svg version="1.1" xmlns="http://www.w3.org/2000/svg" xmlns:xlink="http://www.w3.org/1999/xlink" x="0px" y="0px"
	 viewBox="0 0 222 204" style="enable-background:new 0 0 222 204;" xml:space="preserve">
<style type="text/css">
	.st0{display:none;}
	.st1{display:none;fill:none;stroke:#171819;stroke-width:3;stroke-miterlimit:10;}
	.st2{fill:none;stroke:#171819;stroke-width:3;stroke-miterlimit:10;}
	.st3{fill:#1F2123;stroke:#171819;stroke-width:0.75;stroke-miterlimit:10;}
	.st4{fill:#1F2123;stroke:#171819;stroke-width:0.5;stroke-miterlimit:10;}
</style>
<g id="Calque_1" class="st0">
	
		<image style="display:inline;overflow:visible;" width="70" height="70" xlink:href="img/weapon/epee.png"  transform="matrix(1.295 0 0 1.295 47.5625 36.962)">
	</image>
</g>
<g id="Calque_4">
	<rect x="51" y="15.5" class="st1" width="114.2" height="114.2"/>
	<path class="st1" d="M108.1,163.5c0,0,37.4-13.3,57.1-33.8c-114.2,0,0,0-114.2,0C69.8,156,108.1,163.5,108.1,163.5z"/>
	<path class="st2" d="M50.8,24.8C50.8,37,50.7,65,51,129.7c-0.5,24.8,57.1,33.8,57.1,33.8s57.5-9.1,57.1-33.8
		c0.2-64.2,0.2-92.3,0.1-104.6c-9.3-0.7-8.9-9.6-8.9-9.6H60.5C60.5,15.5,60.1,24.4,50.8,24.8z"/>
</g>
<g id="Calque_2">
	<circle class="st2" cx="63.1" cy="125.1" r="4.8"/>
	<path class="st2" d="M72.9,108l7.3,7.5c0,0,0,0-12.2,9c-0.2-4.1-4.8-4.2-4.8-4.2L72.9,108z"/>
	<polygon class="st2" points="65.3,100.1 70.1,95.7 92.9,118.7 88,123 	"/>
	<polygon class="st2" points="149.2,39.5 142.8,58.2 85.4,111.1 76.8,102.5 131.2,46.1 	"/>
</g>
<g id="Calque_5">
	<g>
		<path class="st3" d="M84,32.7c-0.4-0.1-0.8-0.1-1.2,0s-0.8,0.1-1.2,0.1c-0.4,0.1-0.7,0.1-1,0.2v-0.3c0.2-0.1,0.3-0.1,0.4-0.2
			c0.1,0,0.1,0,0.2-0.1c0,0,0.1,0,0.1,0c0,0,0,0,0.1-0.1c0.1-0.5,0.1-1.1,0.2-1.6c0-0.5,0.1-1.1,0.1-1.7s0-1.1-0.1-1.7
			s-0.2-1.1-0.3-1.6c0-0.1-0.1-0.2-0.1-0.2c0-0.1-0.1-0.1-0.1-0.1s-0.1-0.1-0.2-0.1c-0.1,0-0.1,0-0.2-0.1c0,0,0,0,0,0
			c0,0-0.1-0.1-0.1-0.1c0-0.1,0-0.1,0-0.1s0.1,0,0.3,0c0.1,0,0.2,0.1,0.4,0.1c0.2,0.1,0.3,0.1,0.5,0.2c0.2,0.1,0.4,0.1,0.6,0.2
			c0.2,0,0.4,0.1,0.6,0.1c0.2-0.1,0.5-0.1,0.8-0.2c0.3-0.1,0.6-0.1,0.9-0.2c0.3-0.1,0.6-0.1,0.9-0.2c0.3-0.1,0.5-0.1,0.6-0.1
			c0.3-0.1,0.7-0.1,1.1-0.1c0.4,0,0.9,0.2,1.3,0.4c0.2,0.3,0.3,0.6,0.3,0.8c0,0.2-0.1,0.4-0.2,0.6c-0.1,0.2-0.3,0.3-0.5,0.5
			c-0.2,0.1-0.3,0.2-0.5,0.4v0c0.2,0.1,0.4,0.2,0.7,0.3c0.2,0.1,0.5,0.1,0.7,0.2c0.2,0.1,0.4,0.2,0.6,0.3c0.2,0.1,0.4,0.3,0.5,0.5
			c0.1,0.3,0.2,0.5,0.2,0.8c0,0.2,0,0.5,0,0.7c0,0.2-0.1,0.4-0.2,0.6c-0.1,0.2-0.2,0.4-0.3,0.6c-0.2,0.4-0.5,0.7-1,1
			S87.7,32.8,87,33c-0.2,0-0.3,0.1-0.5,0.1c-0.2,0-0.3,0-0.5,0c-0.2,0-0.3,0-0.5,0s-0.3,0-0.5,0C84.7,32.8,84.4,32.7,84,32.7z
			 M85.4,27.8c0.6-0.2,1.1-0.6,1.5-1c0.1-0.3,0.2-0.5,0.2-0.8c0-0.2,0-0.4-0.1-0.5s-0.2-0.2-0.4-0.3c-0.2-0.1-0.3-0.1-0.6-0.1
			c-0.2,0-0.4,0-0.6,0s-0.3,0-0.5,0.1s-0.3,0.1-0.5,0.3c-0.2,0.1-0.4,0.3-0.6,0.5c-0.1,0.1-0.2,0.3-0.3,0.5
			c-0.1,0.2-0.1,0.4-0.1,0.6c0,0.2,0,0.4,0,0.7s0,0.4,0,0.6C84.2,28.2,84.8,28,85.4,27.8z M86.2,32.8c0.3-0.1,0.5-0.2,0.8-0.4
			c0.2-0.2,0.4-0.5,0.6-0.8c0.2-0.3,0.3-0.6,0.4-1c0.1-0.3,0.2-0.7,0.2-1c0-0.3,0-0.6-0.1-0.9c-0.1-0.3-0.3-0.5-0.5-0.7
			c-0.2-0.2-0.5-0.3-0.9-0.3c-0.6,0-1.1,0.1-1.7,0.2c-0.5,0.1-1,0.4-1.5,0.7c0,0.3,0,0.5,0,0.8c0,0.3,0,0.6,0,0.9
			c0,0.3,0.1,0.6,0.2,0.9c0.1,0.3,0.2,0.5,0.4,0.7c0.2,0.1,0.4,0.2,0.5,0.3s0.4,0.2,0.6,0.3C85.6,32.9,85.9,32.9,86.2,32.8z"/>
		<path class="st3" d="M90.1,34.9c0,0,0.1,0,0.1,0c0,0,0.1,0,0.1,0s0.1,0,0.1,0c0.3-0.2,0.6-0.4,0.8-0.6c0.2-0.2,0.3-0.5,0.4-0.7
			c0.1-0.3,0.2-0.5,0.2-0.9c0-0.3,0.1-0.6,0.1-1c0-0.6,0-1.1,0-1.7s0-1.1,0-1.6s0-0.9,0.1-1.3c0.1-0.4,0.2-0.7,0.4-0.9
			c-0.1,0-0.2-0.1-0.3-0.1c-0.1,0-0.2,0-0.3-0.1c0,0-0.1,0-0.1-0.1c0,0,0-0.1,0.1-0.1c0.2,0,0.3,0,0.5,0c0.1,0,0.3,0,0.5,0
			s0.4,0,0.6,0.1c0.2,0,0.4,0,0.7,0.1c0.7,0.1,1.4,0.1,2.1,0c0.8-0.1,1.5-0.1,2.2-0.2c0,0,0,0,0.1,0c0,0,0,0,0,0c0,0,0,0,0,0
			c0,0,0,0.1-0.1,0.1c-0.3,0-0.5,0.1-0.6,0.1c-0.1,0-0.2,0-0.2,0s-0.1,0,0,0c0,0,0.1,0,0.1,0c0,0,0.1,0,0.1,0c0,0,0,0,0,0
			c0,0.2,0,0.5-0.1,0.9s0,0.9,0,1.4c0,0.6,0.1,1.2,0.3,1.8c0.2,0.7,0.4,1.4,0.7,2.2c0.1,0.1,0.2,0.1,0.4,0.2
			c0.1,0.1,0.2,0.2,0.4,0.3c-0.2,0-0.4-0.1-0.8-0.1c-0.4,0-0.7-0.1-1.2-0.1c-0.4,0-0.8,0-1.2,0.1s-0.7,0.1-0.9,0.2
			c0.2-0.1,0.3-0.2,0.4-0.3c0.1-0.1,0.2-0.1,0.3-0.2c0.1,0,0.1-0.1,0.1-0.1c0,0,0,0,0,0c0-0.3,0-0.5,0-0.8c0-0.2-0.1-0.4-0.1-0.6
			s-0.1-0.4-0.1-0.6c0-0.2-0.1-0.5-0.1-0.8c-0.3,0-0.5-0.1-0.7-0.1c-0.2,0-0.4,0-0.6-0.1s-0.4,0-0.6,0c-0.2,0-0.4,0.1-0.7,0.1
			c-0.1,0.2-0.2,0.4-0.3,0.8c-0.1,0.3-0.2,0.7-0.3,1.1s-0.2,0.8-0.4,1.2c-0.1,0.4-0.3,0.8-0.5,1.1c-0.2,0.3-0.4,0.6-0.6,0.9
			c-0.2,0.2-0.5,0.4-0.8,0.4c-0.1,0-0.2,0-0.2,0c0,0-0.1-0.1-0.1-0.1s0-0.1,0-0.1S90,35,90.1,34.9C90.1,34.9,90.1,34.9,90.1,34.9z
			 M94.9,29.4c0.2,0,0.4,0,0.6,0c0.2,0,0.4,0,0.6,0c0.2,0,0.4-0.1,0.6-0.1c0-0.1,0-0.3,0-0.5c0-0.2-0.1-0.4-0.1-0.6
			c-0.1-0.2-0.1-0.4-0.2-0.6c-0.1-0.2-0.1-0.4-0.2-0.6c-0.1-0.2-0.1-0.3-0.2-0.4c-0.1-0.1-0.1-0.2-0.1-0.2c0,0-0.1,0-0.1,0
			s-0.1,0-0.1,0c0,0-0.1,0-0.2,0c-0.1,0-0.2,0-0.3,0c-0.1,0-0.1,0.1-0.2,0.2c-0.1,0.1-0.1,0.3-0.2,0.5c-0.1,0.2-0.1,0.4-0.2,0.7
			c-0.1,0.2-0.1,0.5-0.1,0.7c0,0.2-0.1,0.4-0.1,0.5s-0.1,0.2-0.1,0.3C94.5,29.4,94.7,29.4,94.9,29.4z"/>
		<path class="st3" d="M102.7,32.7c0.1-0.1,0.2-0.2,0.3-0.2c0.1-0.1,0.1-0.1,0.2-0.1c0.1-0.3,0.1-0.6,0.2-1.1
			c0.1-0.4,0.1-0.9,0.1-1.4c0-0.5,0-1-0.1-1.5c0-0.5-0.1-1-0.3-1.4c-0.1-0.2-0.2-0.3-0.3-0.4c-0.1-0.1-0.2-0.1-0.4,0
			c-0.1,0-0.3,0.1-0.4,0.2s-0.3,0.2-0.4,0.3c-0.1,0.2-0.2,0.4-0.4,0.6c-0.1,0.2-0.3,0.4-0.4,0.5c-0.1,0.2-0.3,0.3-0.4,0.4
			c-0.1,0.1-0.2,0.1-0.3,0.1c-0.1,0-0.1-0.1-0.1-0.2c0-0.1,0.1-0.4,0.2-0.7c0.1-0.2,0.2-0.5,0.3-0.9c0.1-0.4,0.2-0.7,0.2-1.1
			c0.2,0,0.6,0,1,0.1c0.5,0,1,0.1,1.6,0.1s1.3,0,2.1,0c0.8,0,1.6-0.1,2.4-0.2c0.1,0.2,0.1,0.3,0.2,0.5s0.1,0.3,0.1,0.5
			c0,0.2,0.1,0.3,0.1,0.5s0.1,0.4,0.2,0.6c0.2,0.4,0.2,0.6,0.3,0.7c0,0.1,0,0.1-0.1,0c-0.1-0.1-0.3-0.3-0.5-0.5s-0.5-0.6-0.9-1
			c-0.2-0.2-0.3-0.3-0.5-0.4c-0.2-0.1-0.4-0.1-0.5-0.1s-0.3,0.1-0.4,0.1s-0.2,0.2-0.2,0.4c-0.1,0.4-0.1,0.8-0.2,1.3
			c0,0.5-0.1,1,0,1.5c0,0.5,0,1,0.1,1.5c0.1,0.5,0.2,0.9,0.3,1.2c0.1,0,0.3,0.1,0.4,0.2c0.1,0.1,0.3,0.2,0.4,0.2
			c0.1,0.1,0.2,0.1,0.2,0.2c0,0,0.1,0.1,0,0c-0.3,0-0.6-0.1-0.9-0.1s-0.5-0.1-0.8-0.1c-0.3,0-0.7,0-1.1,0c-0.4,0-1,0.2-1.8,0.3
			L102.7,32.7z"/>
		<path class="st3" d="M112.5,32.7c0.1-0.1,0.2-0.2,0.3-0.2c0.1-0.1,0.1-0.1,0.2-0.1c0.1-0.3,0.1-0.6,0.2-1.1
			c0.1-0.4,0.1-0.9,0.1-1.4c0-0.5,0-1-0.1-1.5c0-0.5-0.1-1-0.3-1.4c-0.1-0.2-0.2-0.3-0.3-0.4c-0.1-0.1-0.2-0.1-0.4,0
			c-0.1,0-0.3,0.1-0.4,0.2s-0.3,0.2-0.4,0.3c-0.1,0.2-0.2,0.4-0.4,0.6c-0.1,0.2-0.3,0.4-0.4,0.5c-0.1,0.2-0.3,0.3-0.4,0.4
			c-0.1,0.1-0.2,0.1-0.3,0.1c-0.1,0-0.1-0.1-0.1-0.2c0-0.1,0.1-0.4,0.2-0.7c0.1-0.2,0.2-0.5,0.3-0.9c0.1-0.4,0.2-0.7,0.2-1.1
			c0.2,0,0.6,0,1,0.1c0.5,0,1,0.1,1.6,0.1s1.3,0,2.1,0c0.8,0,1.6-0.1,2.4-0.2c0.1,0.2,0.1,0.3,0.2,0.5s0.1,0.3,0.1,0.5
			c0,0.2,0.1,0.3,0.1,0.5s0.1,0.4,0.2,0.6c0.2,0.4,0.2,0.6,0.3,0.7c0,0.1,0,0.1-0.1,0c-0.1-0.1-0.3-0.3-0.5-0.5s-0.5-0.6-0.9-1
			c-0.2-0.2-0.3-0.3-0.5-0.4c-0.2-0.1-0.4-0.1-0.5-0.1s-0.3,0.1-0.4,0.1s-0.2,0.2-0.2,0.4c-0.1,0.4-0.1,0.8-0.2,1.3
			c0,0.5-0.1,1,0,1.5c0,0.5,0,1,0.1,1.5c0.1,0.5,0.2,0.9,0.3,1.2c0.1,0,0.3,0.1,0.4,0.2c0.1,0.1,0.3,0.2,0.4,0.2
			c0.1,0.1,0.2,0.1,0.2,0.2c0,0,0.1,0.1,0,0c-0.3,0-0.6-0.1-0.9-0.1s-0.5-0.1-0.8-0.1c-0.3,0-0.7,0-1.1,0c-0.4,0-1,0.2-1.8,0.3
			L112.5,32.7z"/>
		<path class="st3" d="M120,33.1c-0.1,0-0.2-0.1-0.3-0.1c-0.1,0,0-0.1,0.1-0.2c0.1-0.1,0.2-0.1,0.3-0.1c0.1,0,0.1-0.1,0.2-0.1
			c0.1-0.4,0.1-0.8,0.1-1.1c0-0.3,0.1-0.6,0.1-0.9c0-0.3,0-0.5,0-0.8c0-0.3,0-0.5,0-0.9c0-0.3,0-0.7-0.1-1.1c0-0.4-0.1-0.9-0.1-1.4
			c0,0.1-0.1,0.1-0.2,0c-0.1-0.1-0.2-0.2-0.3-0.3c-0.1-0.1-0.2-0.2-0.3-0.3s-0.1-0.1,0-0.1c0.7,0.2,1.2,0.3,1.6,0.3
			c0.4,0,0.8,0,1.1,0s0.6-0.1,0.8-0.2s0.5-0.1,0.9-0.2c-0.1,0.1-0.2,0.2-0.3,0.3s-0.2,0.2-0.2,0.2s-0.2,0.1-0.2,0.1
			c-0.1,0-0.2,0-0.3,0.1c-0.2,0.7-0.3,1.4-0.3,2.1s-0.1,1.2,0,1.7s0,0.8,0.1,1.1c0,0.3,0,0.4,0,0.3c0,0.3,0.1,0.5,0.3,0.6
			c0.2,0.2,0.4,0.2,0.7,0.3c0.3,0,0.6,0,0.9-0.1s0.6-0.2,0.9-0.5c0.2-0.1,0.3-0.3,0.5-0.4c0.2-0.2,0.3-0.3,0.5-0.5
			c0.2-0.1,0.3-0.3,0.4-0.4c0.1-0.1,0.2-0.2,0.3-0.2s0.1,0,0.1,0.1c0,0.1,0,0.2-0.1,0.5c0,0.1-0.1,0.3-0.1,0.5
			c0,0.2-0.1,0.4-0.1,0.6c0,0.2-0.1,0.4-0.1,0.6s-0.1,0.3-0.1,0.4c-0.5,0-1.1,0-1.7-0.1c-0.6-0.1-1.3-0.1-1.9-0.1
			c-0.7,0-1.3-0.1-1.9-0.1c-0.6,0-1.1,0.1-1.6,0.2L120,33.1z"/>
		<path class="st3" d="M136.4,33.1C136.4,33.1,136.4,33.1,136.4,33.1c-0.1-0.1-0.2-0.2-0.3-0.4c-0.1-0.1-0.2-0.2-0.2-0.3
			c-0.9,0.3-1.7,0.5-2.4,0.5s-1.4,0-2-0.2s-1.1-0.4-1.5-0.8c-0.4-0.3-0.7-0.7-1-1.1c-0.2-0.4-0.4-0.9-0.4-1.3c0-0.5,0-0.9,0.2-1.4
			s0.4-0.8,0.8-1.2c0.4-0.4,0.8-0.7,1.4-0.9c0.6-0.2,1.3-0.4,2.1-0.4c0.8,0,1.7,0.1,2.8,0.3c0.2-0.2,0.3-0.3,0.4-0.4
			c0.1-0.1,0.2-0.2,0.3-0.4c0.2,0,0.3,0,0.4,0s0.1,0.1,0.2,0.1s0.1,0.1,0,0.2s0,0.2,0,0.3c-0.3,0.2-0.6,0.5-0.8,0.8
			c-0.2,0.3-0.3,0.7-0.4,1c-0.1,0.4-0.2,0.7-0.2,1.1c0,0.4,0,0.8,0,1.1c0,0.6,0,1.1,0.2,1.7S136.2,32.6,136.4,33.1
			C136.4,33.1,136.4,33.1,136.4,33.1z M133.1,32.8c0.2,0,0.4,0,0.7-0.1c0.2-0.1,0.5-0.1,0.7-0.2c0.2-0.1,0.4-0.2,0.6-0.3
			s0.4-0.2,0.6-0.4c0-0.2-0.1-0.3-0.1-0.4s-0.1-0.3-0.1-0.4s-0.1-0.2-0.1-0.4s-0.1-0.3-0.1-0.4c-0.1-0.1-0.2-0.2-0.5-0.4
			c-0.2-0.2-0.6-0.3-0.9-0.5c-0.4-0.1-0.8-0.3-1.2-0.3c-0.4-0.1-0.9-0.1-1.4-0.1c-0.1,0-0.1,0.1-0.1,0.3c0,0.2,0,0.5,0.1,0.8
			c0.1,0.3,0.1,0.6,0.2,1c0.1,0.3,0.2,0.7,0.4,1s0.4,0.5,0.6,0.7S132.8,32.8,133.1,32.8L133.1,32.8z M131.2,28.6c0.3,0,0.6,0,0.9,0
			c0.3,0,0.6,0,0.9,0c0.3,0,0.6-0.1,0.9-0.2c0.3-0.1,0.5-0.2,0.8-0.3c0.2-0.2,0.4-0.3,0.6-0.6c0.2-0.2,0.3-0.5,0.4-0.9
			c-0.3-0.3-0.6-0.5-0.9-0.7c-0.3-0.1-0.7-0.2-1-0.1c-0.3,0-0.6,0.1-0.9,0.3c-0.3,0.2-0.6,0.4-0.8,0.6c-0.2,0.2-0.4,0.5-0.6,0.9
			C131.3,27.9,131.2,28.2,131.2,28.6L131.2,28.6z"/>
	</g>
	<g>
		<path class="st4" d="M89,138.7c-0.4-0.1-0.8-0.1-1.2,0c-0.4,0-0.8,0.1-1.2,0.1c-0.4,0.1-0.7,0.1-1,0.2v-0.3
			c0.2-0.1,0.3-0.1,0.4-0.2c0.1,0,0.1,0,0.2-0.1s0.1,0,0.1,0s0,0,0.1-0.1c0.1-0.5,0.1-1.1,0.2-1.6s0.1-1.1,0.1-1.7
			c0-0.6,0-1.1-0.1-1.7c-0.1-0.6-0.2-1.1-0.3-1.7c0-0.1-0.1-0.2-0.1-0.2c0-0.1-0.1-0.1-0.1-0.1c0,0-0.1-0.1-0.2-0.1
			c-0.1,0-0.1,0-0.2-0.1c0,0,0,0,0,0c0,0-0.1-0.1-0.1-0.1s0-0.1,0-0.1s0.1,0,0.3,0c0.1,0,0.2,0.1,0.4,0.1c0.2,0.1,0.3,0.1,0.5,0.2
			c0.2,0.1,0.4,0.1,0.6,0.2c0.2,0,0.4,0.1,0.6,0.1c0.2-0.1,0.5-0.1,0.8-0.2c0.3-0.1,0.6-0.1,0.9-0.2c0.3-0.1,0.6-0.1,0.9-0.2
			c0.3-0.1,0.5-0.1,0.6-0.1c0.3-0.1,0.7-0.1,1.1-0.1c0.4,0,0.9,0.2,1.3,0.4c0.2,0.3,0.3,0.6,0.3,0.8c0,0.2-0.1,0.4-0.2,0.6
			c-0.1,0.2-0.3,0.3-0.5,0.5c-0.2,0.1-0.3,0.2-0.5,0.4v0c0.2,0.1,0.4,0.2,0.7,0.3c0.2,0.1,0.5,0.1,0.7,0.2c0.2,0.1,0.4,0.2,0.6,0.3
			c0.2,0.1,0.4,0.3,0.5,0.5c0.1,0.3,0.2,0.5,0.2,0.8c0,0.2,0,0.5,0,0.7c0,0.2-0.1,0.4-0.2,0.6c-0.1,0.2-0.2,0.4-0.3,0.6
			c-0.2,0.4-0.5,0.7-1,1s-1.1,0.6-1.8,0.8c-0.2,0-0.3,0.1-0.5,0.1s-0.3,0-0.5,0c-0.2,0-0.3,0-0.5,0c-0.2,0-0.3,0-0.5,0
			C89.7,138.8,89.4,138.7,89,138.7z M90.4,133.8c0.6-0.2,1.1-0.6,1.5-1c0.1-0.3,0.2-0.5,0.2-0.8c0-0.2,0-0.4-0.1-0.5
			c-0.1-0.1-0.2-0.2-0.4-0.3c-0.2-0.1-0.3-0.1-0.6-0.1c-0.2,0-0.4,0-0.6,0c-0.2,0-0.3,0-0.5,0.1s-0.3,0.2-0.5,0.3
			c-0.2,0.1-0.4,0.3-0.6,0.5c-0.1,0.1-0.2,0.3-0.3,0.5c-0.1,0.2-0.1,0.4-0.1,0.6c0,0.2,0,0.4,0,0.7s0,0.4,0,0.6
			C89.2,134.2,89.8,134,90.4,133.8z M91.2,138.8c0.3-0.1,0.5-0.2,0.8-0.4c0.2-0.2,0.4-0.5,0.6-0.8c0.2-0.3,0.3-0.6,0.4-1
			c0.1-0.3,0.2-0.7,0.2-1c0-0.3,0-0.6-0.1-0.9c-0.1-0.3-0.3-0.5-0.5-0.7c-0.2-0.2-0.5-0.3-0.9-0.3c-0.6,0-1.1,0.1-1.7,0.2
			c-0.5,0.1-1,0.4-1.5,0.7c0,0.3,0,0.5,0,0.8c0,0.3,0,0.6,0,0.9c0,0.3,0.1,0.6,0.2,0.9c0.1,0.3,0.2,0.5,0.4,0.7
			c0.2,0.1,0.4,0.2,0.5,0.3s0.4,0.2,0.6,0.3C90.6,138.9,90.9,138.9,91.2,138.8z"/>
		<path class="st4" d="M100.3,138.5c-0.3,0-0.6,0-0.9-0.1c-0.3-0.1-0.6-0.2-0.9-0.4c-0.3-0.2-0.6-0.4-0.8-0.6
			c-0.3-0.2-0.5-0.5-0.7-0.8c-0.2-0.3-0.3-0.6-0.4-0.9c-0.1-0.3-0.2-0.6-0.2-0.9c0-0.5,0.1-1,0.3-1.4s0.5-0.8,0.8-1.2
			c0.4-0.3,0.8-0.6,1.3-0.8s1-0.3,1.6-0.3c0.6,0,1.2,0.1,1.7,0.4c0.5,0.2,1,0.5,1.4,0.9c0.4,0.4,0.7,0.7,0.9,1.2
			c0.2,0.4,0.3,0.8,0.3,1.2c0,0.5-0.1,1-0.3,1.4c-0.2,0.4-0.5,0.8-0.8,1.2c-0.4,0.3-0.8,0.6-1.3,0.8c-0.5,0.2-1.1,0.3-1.8,0.3H100.3
			z M101.6,138.3c0.3,0,0.6,0,0.9-0.2c0.3-0.2,0.5-0.5,0.6-0.8c0.2-0.3,0.3-0.7,0.4-1.1c0.1-0.4,0.1-0.9,0.1-1.3
			c0-0.4-0.1-0.9-0.2-1.3c-0.1-0.4-0.2-0.8-0.4-1.1c-0.2-0.3-0.4-0.6-0.7-0.7c-0.3-0.2-0.6-0.2-0.9-0.2c-0.3,0-0.5,0.2-0.7,0.4
			c-0.2,0.2-0.4,0.5-0.5,0.9c-0.1,0.3-0.2,0.7-0.3,1.1c0,0.4-0.1,0.8,0,1.3c0,0.4,0.1,0.8,0.2,1.2c0.1,0.4,0.2,0.7,0.3,1
			c0.1,0.3,0.3,0.5,0.4,0.7s0.4,0.2,0.6,0.2L101.6,138.3z"/>
		<path class="st4" d="M104.6,140.9c0,0,0.1,0,0.1,0c0,0,0.1,0,0.1,0s0.1,0,0.1,0c0.3-0.2,0.6-0.4,0.8-0.6c0.2-0.2,0.3-0.5,0.4-0.7
			c0.1-0.3,0.2-0.5,0.2-0.9c0-0.3,0.1-0.6,0.1-1c0-0.6,0-1.1,0-1.7c0-0.6,0-1.1,0-1.6s0-0.9,0.1-1.3c0.1-0.4,0.2-0.7,0.4-0.9
			c-0.1,0-0.2-0.1-0.3-0.1c-0.1,0-0.2,0-0.3-0.1c0,0-0.1,0-0.1-0.1c0,0,0-0.1,0.1-0.1c0.2,0,0.3,0,0.5,0c0.1,0,0.3,0,0.5,0
			s0.4,0,0.6,0.1c0.2,0,0.4,0,0.7,0.1c0.7,0.1,1.4,0.1,2.1,0s1.5-0.1,2.2-0.2c0,0,0,0,0.1,0c0,0,0,0,0,0c0,0,0,0,0,0
			c0,0,0,0.1-0.1,0.1c-0.3,0-0.5,0.1-0.6,0.1c-0.1,0-0.2,0-0.2,0s-0.1,0,0,0c0,0,0.1,0,0.1,0c0,0,0.1,0,0.1,0c0,0,0,0,0,0
			c0,0.2,0,0.5-0.1,0.9c0,0.4,0,0.9,0,1.4c0,0.6,0.1,1.2,0.3,1.8c0.2,0.7,0.4,1.4,0.7,2.2c0.1,0.1,0.2,0.1,0.4,0.2
			c0.1,0.1,0.2,0.2,0.4,0.3c-0.2,0-0.4-0.1-0.8-0.1c-0.4,0-0.7-0.1-1.2-0.1c-0.4,0-0.8,0-1.2,0.1c-0.4,0-0.7,0.1-0.9,0.2
			c0.2-0.1,0.3-0.2,0.4-0.3c0.1-0.1,0.2-0.1,0.3-0.2c0.1,0,0.1-0.1,0.1-0.1c0,0,0,0,0,0c0-0.3,0-0.5,0-0.8c0-0.2-0.1-0.4-0.1-0.6
			s-0.1-0.4-0.1-0.6c0-0.2-0.1-0.5-0.1-0.8c-0.3,0-0.5-0.1-0.7-0.1c-0.2,0-0.4,0-0.6-0.1s-0.4,0-0.6,0c-0.2,0-0.4,0.1-0.7,0.1
			c-0.1,0.2-0.2,0.4-0.3,0.8s-0.2,0.7-0.3,1.1s-0.2,0.8-0.4,1.2c-0.1,0.4-0.3,0.8-0.5,1.1c-0.2,0.3-0.4,0.6-0.6,0.9
			c-0.2,0.2-0.5,0.4-0.8,0.4c-0.1,0-0.2,0-0.2,0c0,0-0.1-0.1-0.1-0.1s0-0.1,0-0.1S104.5,141,104.6,140.9
			C104.5,140.9,104.5,140.9,104.6,140.9z M108.3,135.4c0.2,0,0.4,0,0.6,0c0.2,0,0.4,0,0.6,0c0.2,0,0.4-0.1,0.6-0.1
			c0-0.1,0-0.3,0-0.5c0-0.2-0.1-0.4-0.1-0.6c-0.1-0.2-0.1-0.4-0.2-0.6c-0.1-0.2-0.1-0.4-0.2-0.6c-0.1-0.2-0.1-0.3-0.2-0.4
			c-0.1-0.1-0.1-0.2-0.1-0.2c0,0-0.1,0-0.1,0s-0.1,0-0.1,0s-0.1,0-0.2,0c-0.1,0-0.2,0-0.3,0c-0.1,0-0.1,0.1-0.2,0.2
			c-0.1,0.1-0.1,0.3-0.2,0.5c-0.1,0.2-0.1,0.4-0.2,0.7s-0.1,0.5-0.1,0.7c0,0.2-0.1,0.4-0.1,0.5c0,0.2-0.1,0.2-0.1,0.3
			C107.9,135.4,108.1,135.4,108.3,135.4z"/>
		<path class="st4" d="M122.3,141.3c0,0-0.1,0.1-0.2,0c-0.1,0-0.2,0-0.3-0.1c-0.1,0-0.2-0.1-0.3-0.1c-0.1,0-0.1-0.1-0.1-0.1
			c0,0-0.1,0-0.1-0.1c-0.1,0-0.2-0.1-0.3-0.3c-0.1-0.1-0.2-0.3-0.2-0.5c-0.1-0.2-0.1-0.5,0-0.9c0-0.1,0-0.2,0.1-0.4s0.1-0.4,0.1-0.6
			c0-0.2,0.1-0.5,0.1-0.8c0-0.3,0.1-0.6,0.1-0.8c0-0.3,0-0.6,0-0.8c0-0.3,0-0.5-0.1-0.7c0-0.1-0.1-0.3-0.3-0.4
			c-0.1-0.1-0.3-0.2-0.5-0.3c-0.2-0.1-0.4-0.1-0.6-0.1s-0.4,0-0.6,0c-0.2,0-0.3,0.1-0.5,0.2s-0.2,0.2-0.2,0.4
			c-0.1,0.7-0.1,1.2,0,1.7c0,0.4,0.1,0.8,0.1,1.1c0.1,0.3,0.1,0.5,0.1,0.6s0,0.2,0,0.1c0.1,0.1,0.2,0.2,0.3,0.3
			c0.1,0.1,0.2,0.1,0.3,0.2s0.1,0.1,0.2,0.2c0,0.1,0,0.1,0,0.2c-0.4-0.2-0.8-0.3-1.1-0.4c-0.3-0.1-0.6-0.1-0.8-0.1
			c-0.1,0-0.2,0-0.2,0c-0.1,0-0.2,0-0.3,0c-0.1,0-0.2,0-0.4,0.1c-0.1,0-0.3,0.1-0.5,0.1c-0.1,0.1-0.2,0.1-0.3,0.2
			c-0.1,0-0.1,0.1-0.2,0.1s-0.1,0-0.1,0s-0.1,0-0.1,0c0-0.1,0.1-0.3,0.2-0.3c0.1-0.1,0.2-0.2,0.2-0.2c0.2-0.2,0.3-0.5,0.4-0.9
			c0.1-0.4,0.2-0.7,0.2-1.2s0.1-0.9,0-1.3s0-0.9-0.1-1.3c-0.1-0.4-0.1-0.8-0.2-1.1c-0.1-0.3-0.2-0.6-0.3-0.7c-0.1,0-0.2,0-0.2-0.1
			c-0.1-0.1-0.1-0.1-0.1-0.2c0-0.1-0.1-0.1-0.1-0.2c0-0.1,0-0.1,0-0.1c0.4,0.1,0.7,0.3,1,0.3c0.3,0.1,0.6,0.1,0.9,0.1
			c0.3,0,0.7,0,1-0.1s0.8-0.1,1.3-0.3c0.9-0.1,1.6-0.1,2,0.1c0.1,0,0.2,0.1,0.3,0.2c0.1,0.1,0.2,0.2,0.2,0.4c0,0.1,0.1,0.3,0,0.5
			c0,0.2-0.1,0.3-0.2,0.5c-0.1,0.1-0.3,0.3-0.4,0.3c-0.2,0.1-0.4,0.1-0.6,0.2c0.4,0.1,0.6,0.2,0.8,0.3s0.4,0.2,0.5,0.3
			c0.1,0.1,0.2,0.2,0.2,0.3s0.1,0.1,0.1,0.2c0.1,0.2,0.2,0.5,0.2,0.8c0,0.3,0,0.6-0.1,0.9c-0.1,0.3-0.2,0.6-0.3,0.9
			c-0.1,0.3-0.3,0.6-0.4,0.8s-0.3,0.5-0.4,0.7c-0.1,0.2-0.2,0.4-0.3,0.5c-0.1,0.1-0.1,0.2-0.1,0.4c0,0.2,0,0.3,0,0.5
			c0,0.2,0.1,0.3,0.1,0.4c0.1,0.1,0.2,0.1,0.3,0.1c0.1-0.1,0.2-0.1,0.3-0.1c0.1,0,0.2,0,0.3,0.2L122.3,141.3z M118.5,134.4
			c0.2-0.1,0.4-0.2,0.5-0.2c0.2,0,0.4,0,0.6-0.1c0.2,0,0.4,0,0.6-0.1c0.2,0,0.4-0.1,0.6-0.2c0.2-0.4,0.3-0.8,0.3-1.1
			c-0.1-0.3-0.2-0.5-0.4-0.6c-0.2-0.1-0.4-0.2-0.7-0.2s-0.6,0.1-0.8,0.3s-0.5,0.4-0.6,0.8c-0.2,0.3-0.2,0.8-0.1,1.3L118.5,134.4z"/>
		<path class="st4" d="M124.8,139.5c-0.1,0-0.2,0-0.3,0.1c-0.1,0-0.2,0.1-0.3,0.1c-0.1,0-0.2,0.1-0.3,0.1s-0.1,0-0.1,0
			c0,0,0,0,0.1-0.1c0,0,0,0,0,0c0,0,0-0.1,0.1-0.1s0.1-0.1,0.2-0.2c0.1-0.1,0.3-0.2,0.4-0.3c0-0.1,0-0.2,0-0.5c0-0.2,0-0.5,0-0.9
			c0-0.4,0-0.7,0-1.2c0-0.4,0-0.8,0-1.3s0-0.8-0.1-1.2s-0.1-0.7-0.1-0.9c0-0.1-0.1-0.2-0.2-0.2c-0.1,0-0.1-0.1-0.2-0.1
			c-0.2-0.2-0.2-0.3-0.3-0.4c0-0.1,0-0.1,0-0.1c0,0,0.1,0,0.1,0.1c0.1,0.1,0.1,0.1,0.1,0.1c0,0.1,0.1,0.1,0.2,0.2
			c0.1,0,0.2,0.1,0.4,0.1c0.1,0,0.3,0,0.5,0c0.2,0,0.3-0.1,0.5-0.2c0.2-0.1,0.5-0.2,0.7-0.3c0.2-0.1,0.4-0.2,0.6-0.2
			s0.4-0.1,0.6-0.1c0.2,0,0.4,0,0.7,0c0.8,0.1,1.5,0.4,2,0.8c0.6,0.4,1,0.8,1.3,1.3c0.3,0.5,0.5,1,0.5,1.6c0,0.6-0.1,1.1-0.4,1.6
			c-0.3,0.5-0.7,1-1.3,1.4c-0.6,0.4-1.4,0.8-2.3,1c0,0,0,0-0.2,0c-0.2,0-0.5,0-0.8-0.1c-0.3,0-0.7-0.1-1.1-0.1c-0.4,0-0.8,0-1.1,0
			C125,139.5,124.9,139.5,124.8,139.5z M127.3,139.5c0.4-0.2,0.7-0.5,1-0.9c0.3-0.4,0.5-0.8,0.6-1.3c0.1-0.5,0.2-1,0.2-1.5
			s-0.1-1-0.2-1.5s-0.3-0.9-0.6-1.2c-0.3-0.4-0.6-0.6-1-0.8c-0.1-0.1-0.2-0.1-0.4-0.1s-0.3,0.1-0.5,0.2s-0.3,0.2-0.4,0.2
			s-0.2,0.2-0.1,0.2c-0.2,0.5-0.3,1.1-0.3,1.6s-0.1,1-0.1,1.6c0,0.5,0,1,0.1,1.5s0.1,1,0.2,1.4l0,0c0,0.1,0.2,0.2,0.4,0.3
			C126.3,139.3,126.7,139.4,127.3,139.5L127.3,139.5z"/>
	</g>
	<g>
		<path class="st4" d="M74.8,83.9c-0.6-0.1-1.1-0.1-1.7-0.1S72,83.9,71.5,84s-1,0.2-1.4,0.3v-0.5c0.2-0.1,0.4-0.2,0.5-0.2
			c0.1,0,0.2-0.1,0.3-0.1s0.1,0,0.1,0c0,0,0.1-0.1,0.1-0.1c0.1-0.7,0.2-1.5,0.2-2.3c0.1-0.8,0.1-1.6,0.1-2.3s-0.1-1.6-0.1-2.4
			S71,74.8,70.8,74c0-0.1-0.1-0.2-0.1-0.3c0-0.1-0.1-0.1-0.2-0.2c-0.1,0-0.1-0.1-0.2-0.1c-0.1,0-0.2-0.1-0.3-0.1c0,0,0,0,0-0.1
			c-0.1-0.1-0.1-0.1-0.1-0.2c0-0.1,0-0.1,0-0.2s0.2-0.1,0.4,0c0.1,0,0.3,0.1,0.6,0.2c0.2,0.1,0.5,0.2,0.7,0.3s0.5,0.2,0.8,0.2
			c0.3,0.1,0.5,0.1,0.8,0.1c0.3-0.1,0.7-0.2,1.1-0.3c0.4-0.1,0.9-0.2,1.3-0.3c0.4-0.1,0.9-0.2,1.3-0.3c0.4-0.1,0.7-0.1,0.9-0.2
			c0.5-0.1,1-0.1,1.6-0.1c0.6,0.1,1.2,0.3,1.8,0.6c0.3,0.5,0.4,0.9,0.4,1.2c0,0.3-0.1,0.6-0.3,0.9c-0.2,0.2-0.4,0.5-0.7,0.6
			c-0.3,0.2-0.5,0.4-0.7,0.5v0.1c0.3,0.1,0.6,0.3,0.9,0.4c0.3,0.1,0.6,0.2,1,0.3c0.3,0.1,0.6,0.3,0.9,0.4c0.3,0.2,0.5,0.4,0.7,0.7
			c0.1,0.4,0.2,0.8,0.3,1.1c0,0.3,0,0.6,0,0.9s-0.1,0.6-0.2,0.8c-0.1,0.3-0.2,0.5-0.4,0.8c-0.3,0.5-0.7,1-1.4,1.4
			c-0.7,0.4-1.5,0.8-2.5,1.1c-0.2,0.1-0.5,0.1-0.7,0.1c-0.2,0-0.5,0-0.7,0c-0.2,0-0.5,0-0.7-0.1c-0.2,0-0.5,0-0.7,0
			C75.8,84.1,75.3,84,74.8,83.9z M76.8,76.9c0.8-0.3,1.6-0.8,2.2-1.4c0.1-0.4,0.2-0.8,0.2-1.1c0-0.3,0-0.5-0.2-0.7s-0.3-0.3-0.5-0.4
			c-0.2-0.1-0.5-0.2-0.8-0.2c-0.3,0-0.6,0-0.8,0c-0.2,0-0.5,0.1-0.7,0.2c-0.2,0.1-0.5,0.2-0.7,0.4c-0.2,0.2-0.5,0.4-0.9,0.7
			c-0.2,0.2-0.3,0.4-0.4,0.7c-0.1,0.3-0.1,0.6-0.2,0.9s0,0.6-0.1,0.9c0,0.3,0,0.6,0,0.8C75,77.5,75.9,77.3,76.8,76.9z M77.9,84.1
			c0.4-0.1,0.8-0.3,1.1-0.6s0.6-0.6,0.9-1.1c0.3-0.4,0.5-0.9,0.6-1.4c0.1-0.5,0.2-1,0.3-1.4c0-0.5,0-0.9-0.2-1.3
			c-0.1-0.4-0.4-0.7-0.7-0.9c-0.3-0.2-0.7-0.4-1.2-0.4c-0.8,0-1.6,0.1-2.4,0.3c-0.7,0.2-1.5,0.5-2.2,1c0,0.4,0,0.8,0,1.2
			c0,0.4,0,0.9,0.1,1.3c0,0.4,0.1,0.8,0.2,1.2s0.3,0.7,0.6,1c0.3,0.2,0.5,0.3,0.8,0.5c0.3,0.2,0.5,0.3,0.8,0.4
			C77.1,84.1,77.5,84.2,77.9,84.1z"/>
	</g>
	<g>
		<path class="st4" d="M140.7,84.3c-0.2,0-0.4,0-0.7,0c-0.2,0-0.5,0-0.7,0.1c-0.2,0-0.5,0-0.7,0s-0.5,0-0.7-0.1
			c-1-0.3-1.8-0.6-2.5-1.1s-1.2-0.9-1.4-1.4c-0.1-0.3-0.3-0.5-0.4-0.8c-0.1-0.3-0.2-0.5-0.2-0.8c0-0.3-0.1-0.6,0-0.9
			c0-0.3,0.1-0.7,0.3-1.1c0.2-0.3,0.4-0.5,0.7-0.7c0.3-0.2,0.6-0.3,0.9-0.4c0.3-0.1,0.6-0.2,1-0.3c0.3-0.1,0.6-0.2,0.9-0.4v-0.1
			c-0.2-0.2-0.4-0.3-0.7-0.5c-0.3-0.2-0.5-0.4-0.7-0.6c-0.2-0.2-0.3-0.5-0.3-0.9c0-0.3,0.1-0.7,0.4-1.2c0.6-0.3,1.2-0.5,1.8-0.6
			c0.6-0.1,1.2,0,1.6,0.1c0.2,0.1,0.5,0.1,0.9,0.2c0.4,0.1,0.8,0.2,1.3,0.3s0.9,0.2,1.3,0.3s0.8,0.2,1.1,0.3c0.2,0,0.5,0,0.8-0.1
			c0.3-0.1,0.5-0.1,0.8-0.2s0.5-0.2,0.7-0.3s0.4-0.1,0.6-0.2c0.2,0,0.4,0,0.4,0c0,0.1,0,0.1,0,0.2c0,0.1-0.1,0.1-0.1,0.2
			c-0.1,0.1-0.1,0.1,0,0.1c-0.1,0-0.2,0.1-0.3,0.1c-0.1,0-0.2,0.1-0.2,0.1s-0.1,0.1-0.2,0.2c0,0.1-0.1,0.2-0.1,0.3
			c-0.2,0.8-0.3,1.6-0.4,2.3s-0.1,1.6-0.1,2.4s0,1.6,0.1,2.3s0.1,1.5,0.2,2.3c0,0.1,0.1,0.1,0.1,0.1c0,0,0.1,0,0.1,0s0.1,0,0.3,0.1
			c0.1,0,0.3,0.1,0.5,0.2v0.5c-0.4-0.1-0.9-0.2-1.4-0.3s-1.1-0.2-1.6-0.2s-1.1,0-1.7,0.1C141.7,84,141.2,84.1,140.7,84.3z
			 M140.3,83.9c0.3-0.1,0.6-0.3,0.8-0.4c0.3-0.2,0.5-0.3,0.8-0.5c0.3-0.3,0.5-0.7,0.6-1c0.1-0.4,0.2-0.8,0.2-1.2s0.1-0.9,0.1-1.3
			c0-0.4,0-0.8,0-1.2c-0.7-0.5-1.4-0.8-2.2-1s-1.5-0.3-2.4-0.3c-0.5,0-0.9,0.1-1.2,0.4s-0.5,0.6-0.7,0.9c-0.1,0.4-0.2,0.8-0.2,1.3
			c0,0.5,0.1,1,0.3,1.4c0.1,0.5,0.3,0.9,0.6,1.4c0.3,0.4,0.5,0.8,0.9,1.1s0.7,0.5,1.1,0.6C139.5,84.2,139.9,84.1,140.3,83.9z
			 M143,77.6c0-0.2,0-0.5,0-0.8c0-0.3,0-0.6-0.1-0.9c0-0.3-0.1-0.6-0.2-0.9c-0.1-0.3-0.2-0.5-0.4-0.7c-0.3-0.3-0.6-0.5-0.9-0.7
			c-0.3-0.2-0.5-0.3-0.7-0.4c-0.2-0.1-0.5-0.1-0.7-0.2c-0.2,0-0.5,0-0.8,0c-0.3,0-0.6,0.1-0.8,0.2c-0.2,0.1-0.4,0.2-0.5,0.4
			s-0.2,0.4-0.2,0.7c0,0.3,0.1,0.7,0.2,1.1c0.6,0.6,1.3,1.1,2.2,1.4C141.1,77.3,142,77.5,143,77.6z"/>
	</g>
</g>
<g id="Calque_3">
	<ellipse transform="matrix(1 -3.018265e-03 3.018265e-03 1 -0.3768 0.464)" class="st2" cx="153.5" cy="125.1" rx="4.8" ry="4.8"/>
	<path class="st2" d="M136.5,115.4l7.4-7.3c0,0,0,0,9,12.2c-4.1,0.2-4.2,4.8-4.2,4.8L136.5,115.4z"/>
	<polygon class="st2" points="128.7,123 124.2,118.2 147.1,95.4 151.4,100.3 	"/>
	<polygon class="st2" points="67.9,39.5 86.6,45.8 139.6,102.9 131,111.5 74.6,57.4 	"/>
</g>
</svg>
